<svg width="250" height="16" viewBox="0 0 250 16" fill="none" xmlns="http://www.w3.org/2000/svg">
<path d="M249.354 8.35357C249.549 8.15831 249.549 7.84173 249.354 7.64647L246.172 4.46449C245.976 4.26923 245.66 4.26922 245.464 4.46449C245.269 4.65975 245.269 4.97633 245.464 5.17159L248.293 8.00002L245.464 10.8284C245.269 11.0237 245.269 11.3403 245.464 11.5356C245.66 11.7308 245.976 11.7308 246.172 11.5356L249.354 8.35357ZM0.988095 8.5C1.26424 8.5 1.4881 8.27614 1.4881 8C1.4881 7.72386 1.26424 7.5 0.988095 7.5L0.988095 8.5ZM5.92857 7.5C5.65243 7.5 5.42857 7.72386 5.42857 8C5.42857 8.27614 5.65243 8.5 5.92857 8.5L5.92857 7.5ZM7.90476 8.5C8.1809 8.5 8.40476 8.27614 8.40476 8C8.40476 7.72386 8.1809 7.5 7.90476 7.5L7.90476 8.5ZM12.8452 7.5C12.5691 7.5 12.3452 7.72386 12.3452 8C12.3452 8.27614 12.5691 8.5 12.8452 8.5L12.8452 7.5ZM14.8214 8.5C15.0976 8.5 15.3214 8.27614 15.3214 8C15.3214 7.72386 15.0976 7.5 14.8214 7.5L14.8214 8.5ZM19.7619 7.5C19.4858 7.5 19.2619 7.72386 19.2619 8C19.2619 8.27614 19.4858 8.5 19.7619 8.5L19.7619 7.5ZM21.7381 8.5C22.0142 8.5 22.2381 8.27614 22.2381 8C22.2381 7.72386 22.0142 7.5 21.7381 7.5L21.7381 8.5ZM26.6786 7.5C26.4024 7.5 26.1786 7.72386 26.1786 8C26.1786 8.27614 26.4024 8.5 26.6786 8.5L26.6786 7.5ZM28.6548 8.5C28.9309 8.5 29.1548 8.27614 29.1548 8C29.1548 7.72386 28.9309 7.5 28.6548 7.5L28.6548 8.5ZM33.5952 7.5C33.3191 7.5 33.0952 7.72386 33.0952 8C33.0952 8.27615 33.3191 8.5 33.5952 8.5L33.5952 7.5ZM35.5714 8.5C35.8476 8.5 36.0714 8.27615 36.0714 8C36.0714 7.72386 35.8476 7.5 35.5714 7.5L35.5714 8.5ZM40.5119 7.5C40.2358 7.5 40.0119 7.72386 40.0119 8C40.0119 8.27615 40.2358 8.5 40.5119 8.5L40.5119 7.5ZM42.4881 8.5C42.7642 8.5 42.9881 8.27615 42.9881 8C42.9881 7.72386 42.7642 7.5 42.4881 7.5L42.4881 8.5ZM47.4286 7.5C47.1524 7.5 46.9286 7.72386 46.9286 8C46.9286 8.27615 47.1524 8.5 47.4286 8.5L47.4286 7.5ZM49.4048 8.5C49.6809 8.5 49.9048 8.27615 49.9048 8C49.9048 7.72386 49.6809 7.5 49.4048 7.5L49.4048 8.5ZM54.3452 7.5C54.0691 7.5 53.8452 7.72386 53.8452 8C53.8452 8.27615 54.0691 8.5 54.3452 8.5L54.3452 7.5ZM56.3214 8.5C56.5976 8.5 56.8214 8.27615 56.8214 8C56.8214 7.72386 56.5976 7.5 56.3214 7.5L56.3214 8.5ZM61.2619 7.50001C60.9858 7.50001 60.7619 7.72386 60.7619 8.00001C60.7619 8.27615 60.9858 8.50001 61.2619 8.50001L61.2619 7.50001ZM63.2381 8.50001C63.5142 8.50001 63.7381 8.27615 63.7381 8.00001C63.7381 7.72386 63.5142 7.50001 63.2381 7.50001L63.2381 8.50001ZM68.1786 7.50001C67.9024 7.50001 67.6786 7.72386 67.6786 8.00001C67.6786 8.27615 67.9024 8.50001 68.1786 8.50001L68.1786 7.50001ZM70.1548 8.50001C70.4309 8.50001 70.6548 8.27615 70.6548 8.00001C70.6548 7.72386 70.4309 7.50001 70.1548 7.50001L70.1548 8.50001ZM75.0952 7.50001C74.8191 7.50001 74.5952 7.72386 74.5952 8.00001C74.5952 8.27615 74.8191 8.50001 75.0952 8.50001L75.0952 7.50001ZM77.0714 8.50001C77.3476 8.50001 77.5714 8.27615 77.5714 8.00001C77.5714 7.72386 77.3476 7.50001 77.0714 7.50001L77.0714 8.50001ZM82.0119 7.50001C81.7358 7.50001 81.5119 7.72386 81.5119 8.00001C81.5119 8.27615 81.7358 8.50001 82.0119 8.50001L82.0119 7.50001ZM83.9881 8.50001C84.2642 8.50001 84.4881 8.27615 84.4881 8.00001C84.4881 7.72386 84.2642 7.50001 83.9881 7.50001L83.9881 8.50001ZM88.9286 7.50001C88.6524 7.50001 88.4286 7.72387 88.4286 8.00001C88.4286 8.27615 88.6524 8.50001 88.9286 8.50001L88.9286 7.50001ZM90.9047 8.50001C91.1809 8.50001 91.4047 8.27615 91.4047 8.00001C91.4047 7.72387 91.1809 7.50001 90.9047 7.50001L90.9047 8.50001ZM95.8452 7.50001C95.5691 7.50001 95.3452 7.72387 95.3452 8.00001C95.3452 8.27615 95.5691 8.50001 95.8452 8.50001L95.8452 7.50001ZM97.8214 8.50001C98.0976 8.50001 98.3214 8.27615 98.3214 8.00001C98.3214 7.72387 98.0976 7.50001 97.8214 7.50001L97.8214 8.50001ZM102.762 7.50001C102.486 7.50001 102.262 7.72387 102.262 8.00001C102.262 8.27615 102.486 8.50001 102.762 8.50001L102.762 7.50001ZM104.738 8.50001C105.014 8.50001 105.238 8.27615 105.238 8.00001C105.238 7.72387 105.014 7.50001 104.738 7.50001L104.738 8.50001ZM109.679 7.50001C109.402 7.50001 109.179 7.72387 109.179 8.00001C109.179 8.27615 109.402 8.50001 109.679 8.50001L109.679 7.50001ZM111.655 8.50001C111.931 8.50001 112.155 8.27615 112.155 8.00001C112.155 7.72387 111.931 7.50001 111.655 7.50001L111.655 8.50001ZM116.595 7.50001C116.319 7.50001 116.095 7.72387 116.095 8.00001C116.095 8.27615 116.319 8.50001 116.595 8.50001L116.595 7.50001ZM118.571 8.50001C118.848 8.50001 119.071 8.27615 119.071 8.00001C119.071 7.72387 118.848 7.50001 118.571 7.50001L118.571 8.50001ZM123.512 7.50001C123.236 7.50001 123.012 7.72387 123.012 8.00001C123.012 8.27615 123.236 8.50001 123.512 8.50001L123.512 7.50001ZM125.488 8.50001C125.764 8.50001 125.988 8.27615 125.988 8.00001C125.988 7.72387 125.764 7.50001 125.488 7.50001L125.488 8.50001ZM130.429 7.50001C130.152 7.50001 129.929 7.72387 129.929 8.00001C129.929 8.27615 130.152 8.50001 130.429 8.50001L130.429 7.50001ZM132.405 8.50001C132.681 8.50001 132.905 8.27615 132.905 8.00001C132.905 7.72387 132.681 7.50001 132.405 7.50001L132.405 8.50001ZM137.345 7.50001C137.069 7.50001 136.845 7.72387 136.845 8.00001C136.845 8.27615 137.069 8.50001 137.345 8.50001L137.345 7.50001ZM139.321 8.50001C139.598 8.50001 139.821 8.27615 139.821 8.00001C139.821 7.72387 139.598 7.50001 139.321 7.50001L139.321 8.50001ZM144.262 7.50001C143.986 7.50001 143.762 7.72387 143.762 8.00001C143.762 8.27615 143.986 8.50001 144.262 8.50001L144.262 7.50001ZM146.238 8.50001C146.514 8.50001 146.738 8.27615 146.738 8.00001C146.738 7.72387 146.514 7.50001 146.238 7.50001L146.238 8.50001ZM151.179 7.50001C150.902 7.50001 150.679 7.72387 150.679 8.00001C150.679 8.27616 150.902 8.50001 151.179 8.50001L151.179 7.50001ZM153.155 8.50001C153.431 8.50001 153.655 8.27616 153.655 8.00001C153.655 7.72387 153.431 7.50001 153.155 7.50001L153.155 8.50001ZM158.095 7.50001C157.819 7.50001 157.595 7.72387 157.595 8.00001C157.595 8.27616 157.819 8.50001 158.095 8.50001L158.095 7.50001ZM160.071 8.50001C160.348 8.50001 160.571 8.27616 160.571 8.00001C160.571 7.72387 160.348 7.50001 160.071 7.50001L160.071 8.50001ZM165.012 7.50001C164.736 7.50001 164.512 7.72387 164.512 8.00001C164.512 8.27616 164.736 8.50001 165.012 8.50001L165.012 7.50001ZM166.988 8.50001C167.264 8.50001 167.488 8.27616 167.488 8.00001C167.488 7.72387 167.264 7.50001 166.988 7.50001L166.988 8.50001ZM171.929 7.50001C171.652 7.50001 171.429 7.72387 171.429 8.00001C171.429 8.27616 171.652 8.50001 171.929 8.50001L171.929 7.50001ZM173.905 8.50001C174.181 8.50001 174.405 8.27616 174.405 8.00001C174.405 7.72387 174.181 7.50001 173.905 7.50001L173.905 8.50001ZM178.845 7.50002C178.569 7.50002 178.345 7.72387 178.345 8.00002C178.345 8.27616 178.569 8.50002 178.845 8.50002L178.845 7.50002ZM180.821 8.50002C181.098 8.50002 181.321 8.27616 181.321 8.00002C181.321 7.72387 181.098 7.50002 180.821 7.50002L180.821 8.50002ZM185.762 7.50002C185.486 7.50002 185.262 7.72387 185.262 8.00002C185.262 8.27616 185.486 8.50002 185.762 8.50002L185.762 7.50002ZM187.738 8.50002C188.014 8.50002 188.238 8.27616 188.238 8.00002C188.238 7.72387 188.014 7.50002 187.738 7.50002L187.738 8.50002ZM192.679 7.50002C192.402 7.50002 192.179 7.72387 192.179 8.00002C192.179 8.27616 192.402 8.50002 192.679 8.50002L192.679 7.50002ZM194.655 8.50002C194.931 8.50002 195.155 8.27616 195.155 8.00002C195.155 7.72387 194.931 7.50002 194.655 7.50002L194.655 8.50002ZM199.595 7.50002C199.319 7.50002 199.095 7.72387 199.095 8.00002C199.095 8.27616 199.319 8.50002 199.595 8.50002L199.595 7.50002ZM201.571 8.50002C201.848 8.50002 202.071 8.27616 202.071 8.00002C202.071 7.72387 201.848 7.50002 201.571 7.50002L201.571 8.50002ZM206.512 7.50002C206.236 7.50002 206.012 7.72388 206.012 8.00002C206.012 8.27616 206.236 8.50002 206.512 8.50002L206.512 7.50002ZM208.488 8.50002C208.764 8.50002 208.988 8.27616 208.988 8.00002C208.988 7.72388 208.764 7.50002 208.488 7.50002L208.488 8.50002ZM213.429 7.50002C213.152 7.50002 212.929 7.72388 212.929 8.00002C212.929 8.27616 213.152 8.50002 213.429 8.50002L213.429 7.50002ZM215.405 8.50002C215.681 8.50002 215.905 8.27616 215.905 8.00002C215.905 7.72388 215.681 7.50002 215.405 7.50002L215.405 8.50002ZM220.345 7.50002C220.069 7.50002 219.845 7.72388 219.845 8.00002C219.845 8.27616 220.069 8.50002 220.345 8.50002L220.345 7.50002ZM222.321 8.50002C222.598 8.50002 222.821 8.27616 222.821 8.00002C222.821 7.72388 222.598 7.50002 222.321 7.50002L222.321 8.50002ZM227.262 7.50002C226.986 7.50002 226.762 7.72388 226.762 8.00002C226.762 8.27616 226.986 8.50002 227.262 8.50002L227.262 7.50002ZM229.238 8.50002C229.514 8.50002 229.738 8.27616 229.738 8.00002C229.738 7.72388 229.514 7.50002 229.238 7.50002L229.238 8.50002ZM234.179 7.50002C233.902 7.50002 233.679 7.72388 233.679 8.00002C233.679 8.27616 233.902 8.50002 234.179 8.50002L234.179 7.50002ZM236.155 8.50002C236.431 8.50002 236.655 8.27616 236.655 8.00002C236.655 7.72388 236.431 7.50002 236.155 7.50002L236.155 8.50002ZM241.095 7.50002C240.819 7.50002 240.595 7.72388 240.595 8.00002C240.595 8.27616 240.819 8.50002 241.095 8.50002L241.095 7.50002ZM243.071 8.50002C243.348 8.50002 243.571 8.27616 243.571 8.00002C243.571 7.72388 243.348 7.50002 243.071 7.50002L243.071 8.50002ZM248.012 7.50002C247.736 7.50002 247.512 7.72388 247.512 8.00002C247.512 8.27616 247.736 8.50002 248.012 8.50002L248.012 7.50002ZM-4.4534e-08 8.5L0.988095 8.5L0.988095 7.5L4.4534e-08 7.5L-4.4534e-08 8.5ZM5.92857 8.5L7.90476 8.5L7.90476 7.5L5.92857 7.5L5.92857 8.5ZM12.8452 8.5L14.8214 8.5L14.8214 7.5L12.8452 7.5L12.8452 8.5ZM19.7619 8.5L21.7381 8.5L21.7381 7.5L19.7619 7.5L19.7619 8.5ZM26.6786 8.5L28.6548 8.5L28.6548 7.5L26.6786 7.5L26.6786 8.5ZM33.5952 8.5L35.5714 8.5L35.5714 7.5L33.5952 7.5L33.5952 8.5ZM40.5119 8.5L42.4881 8.5L42.4881 7.5L40.5119 7.5L40.5119 8.5ZM47.4286 8.5L49.4048 8.5L49.4048 7.5L47.4286 7.5L47.4286 8.5ZM54.3452 8.5L56.3214 8.5L56.3214 7.5L54.3452 7.5L54.3452 8.5ZM61.2619 8.50001L63.2381 8.50001L63.2381 7.50001L61.2619 7.50001L61.2619 8.50001ZM68.1786 8.50001L70.1548 8.50001L70.1548 7.50001L68.1786 7.50001L68.1786 8.50001ZM75.0952 8.50001L77.0714 8.50001L77.0714 7.50001L75.0952 7.50001L75.0952 8.50001ZM82.0119 8.50001L83.9881 8.50001L83.9881 7.50001L82.0119 7.50001L82.0119 8.50001ZM88.9286 8.50001L90.9047 8.50001L90.9047 7.50001L88.9286 7.50001L88.9286 8.50001ZM95.8452 8.50001L97.8214 8.50001L97.8214 7.50001L95.8452 7.50001L95.8452 8.50001ZM102.762 8.50001L104.738 8.50001L104.738 7.50001L102.762 7.50001L102.762 8.50001ZM109.679 8.50001L111.655 8.50001L111.655 7.50001L109.679 7.50001L109.679 8.50001ZM116.595 8.50001L118.571 8.50001L118.571 7.50001L116.595 7.50001L116.595 8.50001ZM123.512 8.50001L125.488 8.50001L125.488 7.50001L123.512 7.50001L123.512 8.50001ZM130.429 8.50001L132.405 8.50001L132.405 7.50001L130.429 7.50001L130.429 8.50001ZM137.345 8.50001L139.321 8.50001L139.321 7.50001L137.345 7.50001L137.345 8.50001ZM144.262 8.50001L146.238 8.50001L146.238 7.50001L144.262 7.50001L144.262 8.50001ZM151.179 8.50001L153.155 8.50001L153.155 7.50001L151.179 7.50001L151.179 8.50001ZM158.095 8.50001L160.071 8.50001L160.071 7.50001L158.095 7.50001L158.095 8.50001ZM165.012 8.50001L166.988 8.50001L166.988 7.50001L165.012 7.50001L165.012 8.50001ZM171.929 8.50001L173.905 8.50001L173.905 7.50001L171.929 7.50001L171.929 8.50001ZM178.845 8.50002L180.821 8.50002L180.821 7.50002L178.845 7.50002L178.845 8.50002ZM185.762 8.50002L187.738 8.50002L187.738 7.50002L185.762 7.50002L185.762 8.50002ZM192.679 8.50002L194.655 8.50002L194.655 7.50002L192.679 7.50002L192.679 8.50002ZM199.595 8.50002L201.571 8.50002L201.571 7.50002L199.595 7.50002L199.595 8.50002ZM206.512 8.50002L208.488 8.50002L208.488 7.50002L206.512 7.50002L206.512 8.50002ZM213.429 8.50002L215.405 8.50002L215.405 7.50002L213.429 7.50002L213.429 8.50002ZM220.345 8.50002L222.321 8.50002L222.321 7.50002L220.345 7.50002L220.345 8.50002ZM227.262 8.50002L229.238 8.50002L229.238 7.50002L227.262 7.50002L227.262 8.50002ZM234.179 8.50002L236.155 8.50002L236.155 7.50002L234.179 7.50002L234.179 8.50002ZM241.095 8.50002L243.071 8.50002L243.071 7.50002L241.095 7.50002L241.095 8.50002ZM248.012 8.50002L249 8.50002L249 7.50002L248.012 7.50002L248.012 8.50002ZM249.707 8.70713C250.098 8.3166 250.098 7.68344 249.707 7.29291L243.343 0.928953C242.953 0.538429 242.319 0.538429 241.929 0.928953C241.538 1.31948 241.538 1.95264 241.929 2.34317L247.586 8.00002L241.929 13.6569C241.538 14.0474 241.538 14.6806 241.929 15.0711C242.319 15.4616 242.953 15.4616 243.343 15.0711L249.707 8.70713ZM0.988095 9C1.54038 9 1.9881 8.55228 1.9881 8C1.9881 7.44772 1.54038 7 0.988095 7L0.988095 9ZM5.92857 7C5.37629 7 4.92857 7.44772 4.92857 8C4.92857 8.55229 5.37629 9 5.92857 9L5.92857 7ZM7.90476 9C8.45705 9 8.90476 8.55229 8.90476 8C8.90476 7.44772 8.45705 7 7.90476 7L7.90476 9ZM12.8452 7C12.293 7 11.8452 7.44772 11.8452 8C11.8452 8.55229 12.293 9 12.8452 9L12.8452 7ZM14.8214 9C15.3737 9 15.8214 8.55229 15.8214 8C15.8214 7.44772 15.3737 7 14.8214 7L14.8214 9ZM19.7619 7C19.2096 7 18.7619 7.44772 18.7619 8C18.7619 8.55229 19.2096 9 19.7619 9L19.7619 7ZM21.7381 9C22.2904 9 22.7381 8.55229 22.7381 8C22.7381 7.44772 22.2904 7 21.7381 7L21.7381 9ZM26.6786 7C26.1263 7 25.6786 7.44772 25.6786 8C25.6786 8.55229 26.1263 9 26.6786 9L26.6786 7ZM28.6548 9C29.207 9 29.6548 8.55229 29.6548 8C29.6548 7.44772 29.207 7 28.6548 7L28.6548 9ZM33.5952 7C33.043 7 32.5952 7.44772 32.5952 8C32.5952 8.55229 33.043 9 33.5952 9L33.5952 7ZM35.5714 9C36.1237 9 36.5714 8.55229 36.5714 8C36.5714 7.44772 36.1237 7 35.5714 7L35.5714 9ZM40.5119 7C39.9596 7 39.5119 7.44772 39.5119 8C39.5119 8.55229 39.9596 9 40.5119 9L40.5119 7ZM42.4881 9C43.0404 9 43.4881 8.55229 43.4881 8C43.4881 7.44772 43.0404 7 42.4881 7L42.4881 9ZM47.4286 7C46.8763 7 46.4286 7.44772 46.4286 8C46.4286 8.55229 46.8763 9 47.4286 9L47.4286 7ZM49.4048 9C49.957 9 50.4048 8.55229 50.4048 8C50.4048 7.44772 49.957 7 49.4048 7L49.4048 9ZM54.3452 7C53.7929 7 53.3452 7.44772 53.3452 8C53.3452 8.55229 53.7929 9 54.3452 9L54.3452 7ZM56.3214 9C56.8737 9 57.3214 8.55229 57.3214 8C57.3214 7.44772 56.8737 7 56.3214 7L56.3214 9ZM61.2619 7.00001C60.7096 7.00001 60.2619 7.44772 60.2619 8.00001C60.2619 8.55229 60.7096 9.00001 61.2619 9.00001L61.2619 7.00001ZM63.2381 9.00001C63.7904 9.00001 64.2381 8.55229 64.2381 8.00001C64.2381 7.44772 63.7904 7.00001 63.2381 7.00001L63.2381 9.00001ZM68.1786 7.00001C67.6263 7.00001 67.1786 7.44772 67.1786 8.00001C67.1786 8.55229 67.6263 9.00001 68.1786 9.00001L68.1786 7.00001ZM70.1548 9.00001C70.707 9.00001 71.1548 8.55229 71.1548 8.00001C71.1548 7.44772 70.707 7.00001 70.1548 7.00001L70.1548 9.00001ZM75.0952 7.00001C74.5429 7.00001 74.0952 7.44772 74.0952 8.00001C74.0952 8.55229 74.5429 9.00001 75.0952 9.00001L75.0952 7.00001ZM77.0714 9.00001C77.6237 9.00001 78.0714 8.55229 78.0714 8.00001C78.0714 7.44772 77.6237 7.00001 77.0714 7.00001L77.0714 9.00001ZM82.0119 7.00001C81.4596 7.00001 81.0119 7.44772 81.0119 8.00001C81.0119 8.55229 81.4596 9.00001 82.0119 9.00001L82.0119 7.00001ZM83.9881 9.00001C84.5404 9.00001 84.9881 8.55229 84.9881 8.00001C84.9881 7.44772 84.5404 7.00001 83.9881 7.00001L83.9881 9.00001ZM88.9286 7.00001C88.3763 7.00001 87.9286 7.44772 87.9286 8.00001C87.9286 8.55229 88.3763 9.00001 88.9286 9.00001L88.9286 7.00001ZM90.9047 9.00001C91.457 9.00001 91.9047 8.55229 91.9047 8.00001C91.9047 7.44772 91.457 7.00001 90.9047 7.00001L90.9047 9.00001ZM95.8452 7.00001C95.2929 7.00001 94.8452 7.44772 94.8452 8.00001C94.8452 8.55229 95.2929 9.00001 95.8452 9.00001L95.8452 7.00001ZM97.8214 9.00001C98.3737 9.00001 98.8214 8.55229 98.8214 8.00001C98.8214 7.44772 98.3737 7.00001 97.8214 7.00001L97.8214 9.00001ZM102.762 7.00001C102.21 7.00001 101.762 7.44772 101.762 8.00001C101.762 8.55229 102.21 9.00001 102.762 9.00001L102.762 7.00001ZM104.738 9.00001C105.29 9.00001 105.738 8.55229 105.738 8.00001C105.738 7.44772 105.29 7.00001 104.738 7.00001L104.738 9.00001ZM109.679 7.00001C109.126 7.00001 108.679 7.44772 108.679 8.00001C108.679 8.55229 109.126 9.00001 109.679 9.00001L109.679 7.00001ZM111.655 9.00001C112.207 9.00001 112.655 8.55229 112.655 8.00001C112.655 7.44772 112.207 7.00001 111.655 7.00001L111.655 9.00001ZM116.595 7.00001C116.043 7.00001 115.595 7.44773 115.595 8.00001C115.595 8.55229 116.043 9.00001 116.595 9.00001L116.595 7.00001ZM118.571 9.00001C119.124 9.00001 119.571 8.5523 119.571 8.00001C119.571 7.44773 119.124 7.00001 118.571 7.00001L118.571 9.00001ZM123.512 7.00001C122.96 7.00001 122.512 7.44773 122.512 8.00001C122.512 8.5523 122.96 9.00001 123.512 9.00001L123.512 7.00001ZM125.488 9.00001C126.04 9.00001 126.488 8.5523 126.488 8.00001C126.488 7.44773 126.04 7.00001 125.488 7.00001L125.488 9.00001ZM130.429 7.00001C129.876 7.00001 129.429 7.44773 129.429 8.00001C129.429 8.5523 129.876 9.00001 130.429 9.00001L130.429 7.00001ZM132.405 9.00001C132.957 9.00001 133.405 8.5523 133.405 8.00001C133.405 7.44773 132.957 7.00001 132.405 7.00001L132.405 9.00001ZM137.345 7.00001C136.793 7.00001 136.345 7.44773 136.345 8.00001C136.345 8.5523 136.793 9.00001 137.345 9.00001L137.345 7.00001ZM139.321 9.00001C139.874 9.00001 140.321 8.5523 140.321 8.00001C140.321 7.44773 139.874 7.00001 139.321 7.00001L139.321 9.00001ZM144.262 7.00001C143.71 7.00001 143.262 7.44773 143.262 8.00001C143.262 8.5523 143.71 9.00001 144.262 9.00001L144.262 7.00001ZM146.238 9.00001C146.79 9.00001 147.238 8.5523 147.238 8.00001C147.238 7.44773 146.79 7.00001 146.238 7.00001L146.238 9.00001ZM151.179 7.00001C150.626 7.00001 150.179 7.44773 150.179 8.00001C150.179 8.5523 150.626 9.00001 151.179 9.00001L151.179 7.00001ZM153.155 9.00001C153.707 9.00001 154.155 8.5523 154.155 8.00001C154.155 7.44773 153.707 7.00001 153.155 7.00001L153.155 9.00001ZM158.095 7.00001C157.543 7.00001 157.095 7.44773 157.095 8.00001C157.095 8.5523 157.543 9.00001 158.095 9.00001L158.095 7.00001ZM160.071 9.00001C160.624 9.00001 161.071 8.5523 161.071 8.00001C161.071 7.44773 160.624 7.00001 160.071 7.00001L160.071 9.00001ZM165.012 7.00001C164.46 7.00001 164.012 7.44773 164.012 8.00001C164.012 8.5523 164.46 9.00001 165.012 9.00001L165.012 7.00001ZM166.988 9.00001C167.54 9.00001 167.988 8.5523 167.988 8.00001C167.988 7.44773 167.54 7.00001 166.988 7.00001L166.988 9.00001ZM171.929 7.00001C171.376 7.00001 170.929 7.44773 170.929 8.00001C170.929 8.5523 171.376 9.00001 171.929 9.00001L171.929 7.00001ZM173.905 9.00001C174.457 9.00001 174.905 8.5523 174.905 8.00002C174.905 7.44773 174.457 7.00001 173.905 7.00001L173.905 9.00001ZM178.845 7.00002C178.293 7.00002 177.845 7.44773 177.845 8.00002C177.845 8.5523 178.293 9.00002 178.845 9.00002L178.845 7.00002ZM180.821 9.00002C181.374 9.00002 181.821 8.5523 181.821 8.00002C181.821 7.44773 181.374 7.00002 180.821 7.00002L180.821 9.00002ZM185.762 7.00002C185.21 7.00002 184.762 7.44773 184.762 8.00002C184.762 8.5523 185.21 9.00002 185.762 9.00002L185.762 7.00002ZM187.738 9.00002C188.29 9.00002 188.738 8.5523 188.738 8.00002C188.738 7.44773 188.29 7.00002 187.738 7.00002L187.738 9.00002ZM192.679 7.00002C192.126 7.00002 191.679 7.44773 191.679 8.00002C191.679 8.5523 192.126 9.00002 192.679 9.00002L192.679 7.00002ZM194.655 9.00002C195.207 9.00002 195.655 8.5523 195.655 8.00002C195.655 7.44773 195.207 7.00002 194.655 7.00002L194.655 9.00002ZM199.595 7.00002C199.043 7.00002 198.595 7.44773 198.595 8.00002C198.595 8.5523 199.043 9.00002 199.595 9.00002L199.595 7.00002ZM201.571 9.00002C202.124 9.00002 202.571 8.5523 202.571 8.00002C202.571 7.44773 202.124 7.00002 201.571 7.00002L201.571 9.00002ZM206.512 7.00002C205.96 7.00002 205.512 7.44773 205.512 8.00002C205.512 8.5523 205.96 9.00002 206.512 9.00002L206.512 7.00002ZM208.488 9.00002C209.04 9.00002 209.488 8.5523 209.488 8.00002C209.488 7.44773 209.04 7.00002 208.488 7.00002L208.488 9.00002ZM213.429 7.00002C212.876 7.00002 212.429 7.44773 212.429 8.00002C212.429 8.5523 212.876 9.00002 213.429 9.00002L213.429 7.00002ZM215.405 9.00002C215.957 9.00002 216.405 8.5523 216.405 8.00002C216.405 7.44773 215.957 7.00002 215.405 7.00002L215.405 9.00002ZM220.345 7.00002C219.793 7.00002 219.345 7.44773 219.345 8.00002C219.345 8.5523 219.793 9.00002 220.345 9.00002L220.345 7.00002ZM222.321 9.00002C222.874 9.00002 223.321 8.5523 223.321 8.00002C223.321 7.44773 222.874 7.00002 222.321 7.00002L222.321 9.00002ZM227.262 7.00002C226.71 7.00002 226.262 7.44773 226.262 8.00002C226.262 8.5523 226.71 9.00002 227.262 9.00002L227.262 7.00002ZM229.238 9.00002C229.79 9.00002 230.238 8.5523 230.238 8.00002C230.238 7.44773 229.79 7.00002 229.238 7.00002L229.238 9.00002ZM234.179 7.00002C233.626 7.00002 233.179 7.44774 233.179 8.00002C233.179 8.5523 233.626 9.00002 234.179 9.00002L234.179 7.00002ZM236.155 9.00002C236.707 9.00002 237.155 8.55231 237.155 8.00002C237.155 7.44774 236.707 7.00002 236.155 7.00002L236.155 9.00002ZM241.095 7.00002C240.543 7.00002 240.095 7.44774 240.095 8.00002C240.095 8.55231 240.543 9.00002 241.095 9.00002L241.095 7.00002ZM243.071 9.00002C243.624 9.00002 244.071 8.55231 244.071 8.00002C244.071 7.44774 243.624 7.00002 243.071 7.00002L243.071 9.00002ZM248.012 7.00002C247.46 7.00002 247.012 7.44774 247.012 8.00002C247.012 8.55231 247.46 9.00002 248.012 9.00002L248.012 7.00002ZM-8.9068e-08 9L0.988095 9L0.988095 7L8.9068e-08 7L-8.9068e-08 9ZM5.92857 9L7.90476 9L7.90476 7L5.92857 7L5.92857 9ZM12.8452 9L14.8214 9L14.8214 7L12.8452 7L12.8452 9ZM19.7619 9L21.7381 9L21.7381 7L19.7619 7L19.7619 9ZM26.6786 9L28.6548 9L28.6548 7L26.6786 7L26.6786 9ZM33.5952 9L35.5714 9L35.5714 7L33.5952 7L33.5952 9ZM40.5119 9L42.4881 9L42.4881 7L40.5119 7L40.5119 9ZM47.4286 9L49.4048 9L49.4048 7L47.4286 7L47.4286 9ZM54.3452 9L56.3214 9L56.3214 7L54.3452 7L54.3452 9ZM61.2619 9.00001L63.2381 9.00001L63.2381 7.00001L61.2619 7.00001L61.2619 9.00001ZM68.1786 9.00001L70.1548 9.00001L70.1548 7.00001L68.1786 7.00001L68.1786 9.00001ZM75.0952 9.00001L77.0714 9.00001L77.0714 7.00001L75.0952 7.00001L75.0952 9.00001ZM82.0119 9.00001L83.9881 9.00001L83.9881 7.00001L82.0119 7.00001L82.0119 9.00001ZM88.9286 9.00001L90.9047 9.00001L90.9047 7.00001L88.9286 7.00001L88.9286 9.00001ZM95.8452 9.00001L97.8214 9.00001L97.8214 7.00001L95.8452 7.00001L95.8452 9.00001ZM102.762 9.00001L104.738 9.00001L104.738 7.00001L102.762 7.00001L102.762 9.00001ZM109.679 9.00001L111.655 9.00001L111.655 7.00001L109.679 7.00001L109.679 9.00001ZM116.595 9.00001L118.571 9.00001L118.571 7.00001L116.595 7.00001L116.595 9.00001ZM123.512 9.00001L125.488 9.00001L125.488 7.00001L123.512 7.00001L123.512 9.00001ZM130.429 9.00001L132.405 9.00001L132.405 7.00001L130.429 7.00001L130.429 9.00001ZM137.345 9.00001L139.321 9.00001L139.321 7.00001L137.345 7.00001L137.345 9.00001ZM144.262 9.00001L146.238 9.00001L146.238 7.00001L144.262 7.00001L144.262 9.00001ZM151.179 9.00001L153.155 9.00001L153.155 7.00001L151.179 7.00001L151.179 9.00001ZM158.095 9.00001L160.071 9.00001L160.071 7.00001L158.095 7.00001L158.095 9.00001ZM165.012 9.00001L166.988 9.00001L166.988 7.00001L165.012 7.00001L165.012 9.00001ZM171.929 9.00001L173.905 9.00001L173.905 7.00001L171.929 7.00001L171.929 9.00001ZM178.845 9.00002L180.821 9.00002L180.821 7.00002L178.845 7.00002L178.845 9.00002ZM185.762 9.00002L187.738 9.00002L187.738 7.00002L185.762 7.00002L185.762 9.00002ZM192.679 9.00002L194.655 9.00002L194.655 7.00002L192.679 7.00002L192.679 9.00002ZM199.595 9.00002L201.571 9.00002L201.571 7.00002L199.595 7.00002L199.595 9.00002ZM206.512 9.00002L208.488 9.00002L208.488 7.00002L206.512 7.00002L206.512 9.00002ZM213.429 9.00002L215.405 9.00002L215.405 7.00002L213.429 7.00002L213.429 9.00002ZM220.345 9.00002L222.321 9.00002L222.321 7.00002L220.345 7.00002L220.345 9.00002ZM227.262 9.00002L229.238 9.00002L229.238 7.00002L227.262 7.00002L227.262 9.00002ZM234.179 9.00002L236.155 9.00002L236.155 7.00002L234.179 7.00002L234.179 9.00002ZM241.095 9.00002L243.071 9.00002L243.071 7.00002L241.095 7.00002L241.095 9.00002ZM248.012 9.00002L249 9.00002L249 7.00002L248.012 7.00002L248.012 9.00002Z" fill="url(#paint0_linear_4794_468)"/>
<defs>
<linearGradient id="paint0_linear_4794_468" x1="249" y1="8.00002" x2="0" y2="8" gradientUnits="userSpaceOnUse">
<stop stop-color="#A8D9E8"/>
<stop offset="1" stop-color="#B7E2C9"/>
</linearGradient>
</defs>
</svg>
