<svg width="177" height="32" viewBox="0 0 177 32" fill="none" xmlns="http://www.w3.org/2000/svg">
<g opacity="0.5" clip-path="url(#clip0_4632_11089)">
<path d="M47.0617 8.44413H42.3435L44.372 13.2521H47.0617V32H52.7866V13.2521H56.3553V8.44413H52.7866C52.8317 6.28207 53.5605 5.54122 55.7543 5.54122H56.3629V0H54.71C47.7679 0 47.0692 5.14056 47.0692 8.44413H47.0617Z" fill="white"/>
<path d="M70.3221 7.44626C63.3575 7.44626 57.8579 12.8892 57.8579 19.7307C57.8579 26.5722 63.3875 31.932 70.2319 31.932C77.0763 31.932 82.5608 26.4437 82.5608 19.7307C82.5608 13.0177 77.0613 7.44626 70.307 7.44626H70.3221ZM70.2019 26.7763C66.5129 26.7763 63.4927 23.6164 63.4927 19.6853C63.4927 15.7543 66.5129 12.5944 70.1192 12.5944C73.9358 12.5944 76.9636 15.7241 76.9636 19.7307C76.9636 23.7373 73.9434 26.7763 70.2094 26.7763H70.2019Z" fill="white"/>
<path d="M95.6337 7.46893C90.3745 7.63524 86.1973 11.9669 86.1973 17.2511V32H91.9222V18.6648C91.9222 14.9454 93.6051 13.0782 97.0386 12.995V7.45381H96.6028C96.3324 7.45381 96.0093 7.45381 95.6337 7.46893Z" fill="white"/>
<path d="M117.887 9.1623C117.887 9.1623 115.453 7.00024 110.585 7.00024C104.048 7.00024 98.8943 12.5263 98.8943 19.5644C98.8943 26.6024 104.003 31.9168 110.63 31.9168H111.464C118.113 31.9168 123.5 26.3605 123.5 20.3128V0H117.887V9.1623ZM111.516 26.746C107.639 26.746 104.552 23.5256 104.552 19.3981C104.552 15.2705 107.504 12.1862 111.306 12.1862C115.355 12.1862 118.308 15.2856 118.308 19.5341C118.308 23.7827 115.31 26.746 111.509 26.746H111.516Z" fill="white"/>
<path d="M151.809 20.0633C151.809 12.7834 146.602 7.44626 139.502 7.44626C132.402 7.44626 126.94 12.9119 126.94 19.8063C126.94 26.7007 132.575 32 139.848 32C143.762 32 146.82 30.6468 149.314 27.7666C150.216 26.6629 150.824 25.6877 151.208 24.5084H144.964C143.499 26.2017 142.079 26.8368 139.72 26.8368C136.317 26.8368 133.822 25.0527 133.139 22.2178H151.598C151.771 21.4165 151.816 20.91 151.816 20.0558H151.809V20.0709V20.0633ZM132.958 17.2738C133.86 14.2197 136.189 12.6171 139.585 12.6171C142.981 12.6171 145.438 14.2726 146.166 17.2738H132.958Z" fill="white"/>
<path d="M177 32L159.209 7.44626H151.816L160.712 19.7231L151.816 32H159.209L164.408 24.8259L169.6 32H177Z" fill="white"/>
<path d="M171.809 14.6204L177 7.44626H169.6L164.408 14.6204H171.809Z" fill="white" fill-opacity="0.54"/>
<path d="M15.041 9.35885L30.563 6.39546C31.2843 6.25939 31.8027 5.62438 31.8027 4.88353V4.14269C31.8027 1.85211 29.962 0 27.6855 0H13.5985C12.6444 0 11.9231 0.87692 12.1034 1.82188L13.298 8.16442C13.4483 8.98087 14.2296 9.51004 15.041 9.35885Z" fill="white"/>
<path d="M8.73017 9.03378L7.26512 1.24734C7.12237 0.521616 6.49879 0 5.76251 0H4.11715C1.8407 0 0 1.85211 0 4.14269V10.3718C0 11.3319 0.871514 12.0576 1.81065 11.8838L7.5431 10.7876C8.35451 10.6364 8.88043 9.85022 8.73017 9.03378Z" fill="white" fill-opacity="0.54"/>
<path d="M8.40711 15.3839L1.23965 16.7522C0.518401 16.8883 0 17.5233 0 18.2641V27.8573C0 30.1479 1.8407 32 4.11715 32H11.217C12.1711 32 12.8924 31.1231 12.7196 30.1781L10.1576 16.5783C10.0074 15.7619 9.22603 15.2327 8.41462 15.3839H8.40711Z" fill="white"/>
<path d="M14.7181 15.7014L15.3342 18.9747C15.492 19.8063 16.2884 20.3581 17.1148 20.1994L24.9359 18.7101C25.7623 18.5514 26.5587 19.0957 26.7165 19.9348L27.017 21.5148C27.1748 22.3463 26.6338 23.1477 25.7999 23.3064L17.9788 24.7957C17.1524 24.9544 16.6039 25.7557 16.7617 26.5873L17.543 30.7451C17.6783 31.4708 18.3094 31.9924 19.0456 31.9924H27.6706C29.9471 31.9924 31.7878 30.1403 31.7878 27.8498V12.7683C31.7878 11.8082 30.9163 11.0825 29.9771 11.2563L15.8902 13.9476C15.0787 14.0988 14.5528 14.885 14.7031 15.7014H14.7181Z" fill="white" fill-opacity="0.54"/>
</g>
<defs>
<clipPath id="clip0_4632_11089">
<rect width="177" height="32" fill="white"/>
</clipPath>
</defs>
</svg>
