<svg width="1920" height="1080" viewBox="0 0 1920 1080" fill="none" xmlns="http://www.w3.org/2000/svg">
<g clip-path="url(#clip0_4630_10914)">
<path fill-rule="evenodd" clip-rule="evenodd" d="M864.276 175.479C849.599 170.285 834.895 165.09 820.191 159.868C813.103 171.424 806.015 182.98 798.927 194.535C819.774 199.258 839.76 207.564 860.857 210.869C861.997 199.063 863.164 187.285 864.304 175.479H864.276Z" fill="#4C4977" fill-opacity="0.1"/>
<path fill-rule="evenodd" clip-rule="evenodd" d="M710.145 339.15C754.119 357.234 799.26 372.289 843.429 389.956C848.71 335.733 853.991 281.482 859.245 227.258C835.618 223.286 813.381 213.286 789.781 209.397C763.236 252.676 736.69 295.899 710.145 339.15Z" fill="#4C4977" fill-opacity="0.1"/>
<path fill-rule="evenodd" clip-rule="evenodd" d="M758.177 375.484C739.164 368.4 720.179 361.206 701.417 353.456C687.101 376.79 672.758 400.151 658.388 423.568C684.516 432.152 710.562 440.735 736.607 449.319C743.695 424.679 752.534 400.54 758.177 375.512V375.484Z" fill="#4C4977" fill-opacity="0.1"/>
<path fill-rule="evenodd" clip-rule="evenodd" d="M841.761 407.124C819.329 398.068 796.619 389.707 773.937 381.317C768.211 406.124 759.455 430.041 752.479 454.513C779.858 463.514 807.21 472.514 834.506 481.514C836.952 456.736 839.343 431.93 841.761 407.151V407.124Z" fill="#4C4977" fill-opacity="0.1"/>
<path fill-rule="evenodd" clip-rule="evenodd" d="M986.386 218.675C954.643 207.452 922.927 196.202 891.155 184.98C888.904 208.341 886.625 231.675 884.345 255.037C914.171 267.426 945.553 276.287 977.38 283.315C977.38 283.26 977.38 283.232 977.38 283.176C980.243 261.842 985.524 240.286 986.358 218.675H986.386Z" fill="#4C4977" fill-opacity="0.1"/>
<path fill-rule="evenodd" clip-rule="evenodd" d="M1044.26 239.175C1030.28 234.231 1016.29 229.286 1002.31 224.342C1000.9 243.981 996.726 263.37 994.058 283.204C993.891 284.51 993.474 285.676 992.863 286.649C1009.74 290.065 1026.66 293.065 1043.51 295.899C1043.76 277.01 1043.98 258.148 1044.23 239.203L1044.26 239.175Z" fill="#4C4977" fill-opacity="0.1"/>
<path fill-rule="evenodd" clip-rule="evenodd" d="M1040.87 510.181L865.555 447.958C864.165 462.097 862.803 476.236 861.413 490.375C917.006 508.654 972.516 526.932 1028 545.21C1031.58 546.377 1035.22 547.349 1038.84 548.377C1039 548.432 1039.26 548.293 1039.45 548.238C1039.64 548.154 1039.81 548.016 1040.39 547.71C1040.56 535.21 1040.7 522.709 1040.87 510.209V510.181Z" fill="#4C4977" fill-opacity="0.1"/>
<path fill-rule="evenodd" clip-rule="evenodd" d="M1043.34 312.621C988.944 303.538 882.677 272.204 882.677 272.204C877.535 325.066 872.393 377.901 867.223 430.763L1041.09 492.875C1041.84 432.957 1042.59 372.928 1043.34 312.649V312.621Z" fill="#4C4977" fill-opacity="0.1"/>
<path fill-rule="evenodd" clip-rule="evenodd" d="M1088.59 80.1996C1089.59 79.0329 1090.54 77.8107 1091.54 76.644C1055.15 54.1435 1021.44 27.8373 988.61 0.475586C987.581 12.1981 986.414 23.9206 985.246 35.643C982.717 60.838 980.104 86.0053 977.575 111.2C976.824 118.7 976.185 126.201 975.434 134.451C992.752 140.562 1010.04 146.673 1027.3 152.785C1053.07 133.756 1068.22 104.478 1088.59 80.1996Z" fill="#4C4977" fill-opacity="0.1"/>
<path fill-rule="evenodd" clip-rule="evenodd" d="M1102.16 63.7825C1124.31 36.8375 1145.83 9.36464 1166.67 -18.6082C1148.61 -42.8032 1129.98 -66.6093 1112.8 -91.0265C1087.87 -74.5539 1062.94 -58.1091 1038 -41.6643C1024.22 -32.5807 1010.43 -23.4972 996.671 -14.3859C1029.97 13.4481 1064.13 40.2542 1101.16 63.0325C1101.55 63.2825 1101.85 63.5325 1102.19 63.8103L1102.16 63.7825Z" fill="#4C4977" fill-opacity="0.1"/>
<path fill-rule="evenodd" clip-rule="evenodd" d="M1241.86 108.339C1226.46 67.3381 1202.7 30.6706 1176.88 -4.74683C1152.11 28.0872 1126.23 59.9768 1100.35 91.9776C1082.09 114.561 1067.19 140.034 1045.59 159.257C1090.07 174.979 1134.43 190.646 1178.88 206.369C1180.71 203.674 1182.21 201.508 1183.63 199.286C1203.2 169.313 1222.77 139.34 1242.34 109.339C1242.17 109.006 1241.97 108.7 1241.84 108.339H1241.86Z" fill="#4C4977" fill-opacity="0.1"/>
<path fill-rule="evenodd" clip-rule="evenodd" d="M1257.04 86.8941L1286.87 41.1987C1286.81 16.7537 1286.48 -7.71907 1285.64 -32.1641C1261.07 -19.0527 1236.89 -5.4968 1213.98 10.3369C1230.38 34.6708 1245.31 59.8658 1257.01 86.8941H1257.04Z" fill="#4C4977" fill-opacity="0.1"/>
<path fill-rule="evenodd" clip-rule="evenodd" d="M1373.45 -91.4987C1381.6 -103.971 1389.71 -116.444 1397.86 -128.888C1399.19 -130.944 1400.75 -132.889 1399.19 -135.583C1396.66 -139.972 1394.27 -144.472 1391.83 -148.889H1383.35C1353.36 -148.889 1323.34 -148.889 1293.34 -148.889C1300.29 -94.221 1302.74 -39.1642 1303.38 15.9203L1373.48 -91.4987H1373.45Z" fill="#4C4977" fill-opacity="0.1"/>
<path fill-rule="evenodd" clip-rule="evenodd" d="M213.505 551.905C214.033 552.21 214.478 552.571 214.895 552.932C235.631 522.515 256.951 492.459 273.768 459.68C256.145 439.374 238.077 419.485 219.398 400.123C202.72 417.429 186.042 434.707 169.392 452.013C156.244 465.68 143.124 479.375 130.004 493.042C158.385 511.82 184.096 534.515 213.477 551.905H213.505Z" fill="#4C4977" fill-opacity="0.1"/>
<path fill-rule="evenodd" clip-rule="evenodd" d="M58.0669 568.516C96.426 586.044 134.563 603.489 172.672 620.906C182.567 602.128 193.908 584.239 205.694 566.599C205.499 566.488 205.277 566.433 205.082 566.322C174.562 548.266 148.016 524.459 118.274 505.292C100.067 524.237 81.8607 543.182 63.6818 562.155C61.9028 564.016 60.2906 566.016 58.0669 568.544V568.516Z" fill="#4C4977" fill-opacity="0.1"/>
<path fill-rule="evenodd" clip-rule="evenodd" d="M292.085 668.407C313.795 632.768 335.476 597.128 357.185 561.488C357.185 561.46 357.129 561.433 357.101 561.405C333.78 531.626 310.042 502.126 285.498 473.319C256.84 527.182 216.507 574.016 187.849 627.823C221.343 643.129 254.81 658.435 288.416 673.796C289.862 671.657 291.057 670.046 292.058 668.379L292.085 668.407Z" fill="#4C4977" fill-opacity="0.1"/>
<path fill-rule="evenodd" clip-rule="evenodd" d="M369.415 541.377C390.429 506.876 411.444 472.375 432.486 437.902C399.38 387.345 359.047 342.122 317.992 297.843C290.279 326.594 262.566 355.372 234.853 384.123C282.801 433.791 326.831 487.098 369.415 541.377Z" fill="#4C4977" fill-opacity="0.1"/>
<path fill-rule="evenodd" clip-rule="evenodd" d="M430.957 294.343C422.034 268.593 413.111 242.842 404.189 217.119C403.577 215.314 402.688 213.591 401.743 211.369C400.019 213.008 398.713 214.147 397.49 215.397C374.836 238.87 352.209 262.37 329.555 285.843C349.096 306.927 368.47 328.261 387.011 350.206C401.798 331.705 416.558 313.177 430.957 294.371V294.343Z" fill="#4C4977" fill-opacity="0.1"/>
<path fill-rule="evenodd" clip-rule="evenodd" d="M442.047 422.235C448.107 412.29 454.167 402.346 460.226 392.429C462.395 388.901 462.811 385.929 461.422 381.956C453.416 359.011 445.439 336.039 437.461 313.066C424.425 329.927 411.166 346.622 397.823 363.289C413.389 382.317 428.316 401.873 442.047 422.263V422.235Z" fill="#4C4977" fill-opacity="0.1"/>
<path fill-rule="evenodd" clip-rule="evenodd" d="M781.943 944.219C791.116 910.357 800.344 876.495 809.517 842.633C773.215 843.133 736.913 844.3 700.638 842.967C714.258 882.412 727.907 921.885 741.527 961.33C742.25 963.386 743.111 965.386 744.112 967.858C754.285 962.997 763.959 958.025 773.938 953.747C778.524 951.775 780.636 948.941 781.915 944.219H781.943Z" fill="#4C4977" fill-opacity="0.1"/>
<path fill-rule="evenodd" clip-rule="evenodd" d="M605.435 567.377C636.011 566.238 666.309 561.238 696.635 556.849C702.834 537.96 708.644 518.932 713.786 499.681C685.628 490.431 657.47 481.153 629.34 471.903C628.339 473.097 627.7 473.681 627.255 474.431C616.387 492.014 605.657 509.654 594.65 527.126C592.621 530.348 593.538 532.932 594.539 535.876C598.18 546.377 601.794 556.905 605.435 567.405V567.377Z" fill="#4C4977" fill-opacity="0.1"/>
<path fill-rule="evenodd" clip-rule="evenodd" d="M690.743 574.433C664.28 578.377 637.79 582.433 611.106 583.822C623.531 619.795 635.956 655.74 648.381 691.713C662.474 652.601 677.317 613.767 690.743 574.461V574.433Z" fill="#4C4977" fill-opacity="0.1"/>
<path fill-rule="evenodd" clip-rule="evenodd" d="M815.577 820.355C827.279 777.271 839.009 734.186 850.739 691.074C798.009 678.657 746.808 660.407 697.581 637.851C685.878 669.824 673.926 701.686 662.946 733.881C672.925 762.715 682.876 791.577 692.855 820.438C733.716 822.355 774.66 820.827 815.577 820.355Z" fill="#4C4977" fill-opacity="0.1"/>
<path fill-rule="evenodd" clip-rule="evenodd" d="M871.892 613.323C876.951 594.711 882.038 576.1 887.292 556.766C838.175 540.599 789.17 524.487 740.193 508.376C729.824 546.932 716.843 584.655 703.279 622.212C752.034 644.684 802.818 662.685 855.103 674.991C860.69 654.435 866.277 633.879 871.892 613.323Z" fill="#4C4977" fill-opacity="0.1"/>
<path fill-rule="evenodd" clip-rule="evenodd" d="M1102.63 509.681C1101.99 555.849 1101.38 602.045 1100.74 648.212C1144.99 645.657 1188.94 639.045 1233.14 635.851C1233.36 590.322 1236.14 544.71 1232.11 499.292C1189.16 501.931 1146.22 504.57 1103.3 507.237C1102.94 508.487 1102.6 509.098 1102.58 509.709L1102.63 509.681Z" fill="#4C4977" fill-opacity="0.1"/>
<path fill-rule="evenodd" clip-rule="evenodd" d="M1276.19 496.57C1267.02 497.126 1257.87 497.709 1248.73 498.264C1252.84 543.682 1250.12 589.294 1249.84 634.851C1257.96 634.462 1266.07 634.184 1274.19 634.129C1277.78 588.35 1278.97 542.432 1276.19 496.598V496.57Z" fill="#4C4977" fill-opacity="0.1"/>
<path fill-rule="evenodd" clip-rule="evenodd" d="M1272.77 650.796C1215.04 651.351 1158.06 661.601 1100.52 664.879C1099.93 707.075 1099.35 749.298 1098.79 791.493C1098.79 792.16 1098.93 792.799 1099.07 793.466C1099.1 793.66 1099.27 793.827 1099.43 793.966C1099.6 794.104 1099.8 794.216 1100.24 794.493C1102.07 793.66 1104.1 792.771 1106.08 791.799C1131.98 779.076 1157.92 766.382 1183.8 753.631C1211.15 740.187 1238.5 726.714 1265.85 713.269C1268.52 692.491 1270.88 671.629 1272.77 650.74V650.796Z" fill="#4C4977" fill-opacity="0.1"/>
<path fill-rule="evenodd" clip-rule="evenodd" d="M1298.35 495.209C1299.54 514.348 1300.01 533.488 1299.9 552.627C1346.49 552.627 1393.1 552.293 1439.47 548.182C1439.89 538.904 1440.33 529.626 1440.58 520.321C1440.89 509.487 1440.64 498.626 1440.64 486.431C1393.13 489.348 1345.71 492.264 1298.32 495.209H1298.35Z" fill="#4C4977" fill-opacity="0.1"/>
<path fill-rule="evenodd" clip-rule="evenodd" d="M1398.33 648.212C1409.53 642.712 1420.71 637.212 1431.88 631.712C1435.61 629.879 1436.86 627.573 1436.94 623.517C1437.3 605.1 1437.94 586.655 1438.63 568.238C1438.66 567.127 1438.72 566.016 1438.77 564.877C1426.43 565.96 1414.06 566.766 1401.67 567.377C1401.22 594.35 1399.08 621.24 1398.33 648.185V648.212Z" fill="#4C4977" fill-opacity="0.1"/>
<path fill-rule="evenodd" clip-rule="evenodd" d="M1299.71 569.294C1298.74 613.545 1294.87 657.712 1289.53 701.686C1320.19 686.602 1350.85 671.546 1381.51 656.49C1381.99 627.017 1384.49 597.6 1385.02 568.127C1356.61 569.155 1328.17 569.294 1299.74 569.294H1299.71Z" fill="#4C4977" fill-opacity="0.1"/>
<path fill-rule="evenodd" clip-rule="evenodd" d="M231.906 716.019C204.415 703.463 176.897 690.88 149.323 678.268C145.126 695.38 140.956 712.408 136.759 729.464C168.391 733.52 199.829 739.02 231.378 743.603C231.962 734.436 232.184 725.242 231.878 716.019H231.906Z" fill="#4C4977" fill-opacity="0.1"/>
<path fill-rule="evenodd" clip-rule="evenodd" d="M216.062 843.494C216.09 843.272 216.145 843.05 216.173 842.828C216.229 842.189 216.34 841.606 216.507 840.994C221.399 814.022 227.069 786.965 230.016 759.715C229.21 759.826 228.376 759.854 227.459 759.715C195.882 755.131 164.472 749.576 132.812 745.603C120.72 794.91 108.656 844.078 96.5928 893.329H209.391C211.031 876.662 213.06 860.023 216.062 843.439V843.494Z" fill="#4C4977" fill-opacity="0.1"/>
<path fill-rule="evenodd" clip-rule="evenodd" d="M78.1914 968.469C82.7222 968.803 86.1968 969.136 89.6992 969.275C119.469 970.386 149.211 971.442 178.954 972.553C186.653 972.831 194.353 973.136 202.025 973.414C204.415 952.33 205.972 931.191 207.806 910.052H92.5066C87.7256 929.496 82.9724 948.969 78.1914 968.469Z" fill="#4C4977" fill-opacity="0.1"/>
<path fill-rule="evenodd" clip-rule="evenodd" d="M457.697 825.966C459.003 824.577 460.143 822.994 461.727 821.077C427.982 805.66 394.293 790.243 360.632 774.854C367.275 822.994 368.887 871.745 368.581 920.385C398.296 888.912 428.01 857.439 457.725 825.938L457.697 825.966Z" fill="#4C4977" fill-opacity="0.1"/>
<path fill-rule="evenodd" clip-rule="evenodd" d="M340.396 950.275C340.98 921.357 341.174 892.273 340.173 863.3C307.985 857.106 275.074 856.05 242.358 853.939C235.603 893.884 233.852 934.219 229.543 974.386C255.756 975.359 281.968 976.359 308.18 977.414C312.822 977.609 315.963 976.192 319.132 972.831C326.22 965.303 333.308 957.803 340.396 950.275Z" fill="#4C4977" fill-opacity="0.1"/>
<path fill-rule="evenodd" clip-rule="evenodd" d="M330.556 761.104C306.985 750.326 283.441 739.575 259.842 728.77C259.397 765.298 251.92 801.521 245.276 837.494C276.77 839.494 308.402 840.744 339.479 846.272C338.033 817.716 335.309 789.271 330.556 761.104Z" fill="#4C4977" fill-opacity="0.1"/>
<path fill-rule="evenodd" clip-rule="evenodd" d="M1557.77 126.006C1559.8 137.368 1561.66 148.062 1563.61 158.757C1564.33 162.757 1565.05 166.757 1565.78 170.757C1585.79 172.174 1605.83 172.979 1625.87 173.452C1625.54 143.034 1624.54 112.645 1622.87 82.283C1601.16 96.8944 1579.45 111.478 1557.8 126.034L1557.77 126.006Z" fill="#4C4977" fill-opacity="0.1"/>
<path fill-rule="evenodd" clip-rule="evenodd" d="M1638.91 71.4772C1640.94 105.534 1642.16 139.618 1642.55 173.729C1672.9 174.118 1703.26 173.785 1733.64 173.452C1733.64 172.896 1733.67 172.313 1733.78 171.702C1741.87 127.923 1749.51 83.9497 1752.76 39.532C1741.37 32.3096 1730.03 25.0595 1718.66 17.8649C1691.94 35.8375 1665.37 53.6712 1638.91 71.4772Z" fill="#4C4977" fill-opacity="0.1"/>
<path fill-rule="evenodd" clip-rule="evenodd" d="M1768.63 49.6155C1765.05 91.1164 1757.93 132.284 1750.37 173.257C1761.16 173.146 1771.91 173.035 1782.7 173.007C1795.32 142.895 1807.91 112.784 1820.56 82.6162C1803.13 71.5326 1785.84 60.5602 1768.63 49.6155Z" fill="#4C4977" fill-opacity="0.1"/>
<path fill-rule="evenodd" clip-rule="evenodd" d="M1698 201.591C1698 201.591 1722.16 259.954 1733.97 289.343C1746.34 259.842 1758.68 230.342 1771.03 200.869C1746.68 201.036 1722.33 201.397 1697.98 201.591H1698Z" fill="#4C4977" fill-opacity="0.1"/>
<path fill-rule="evenodd" clip-rule="evenodd" d="M1570.83 198.869C1576.23 228.731 1581.59 258.592 1586.96 288.454C1590.6 308.76 1594.3 329.066 1597.74 349.4C1598.46 353.678 1600.41 355.817 1604.52 357.15C1614.67 360.4 1624.65 364.095 1634.71 367.65C1653.75 374.345 1672.76 381.04 1692.64 388.04C1703.45 362.178 1714.26 336.4 1725.08 310.594C1708.57 274.648 1678.38 201.647 1678.38 201.647L1570.83 198.841V198.869Z" fill="#4C4977" fill-opacity="0.1"/>
<path fill-rule="evenodd" clip-rule="evenodd" d="M607.381 -2.66335C606.019 -1.24666 604.768 0.253372 603.406 1.78119C605.769 3.22566 638.819 15.2815 682.598 30.9485C682.404 -6.80234 682.265 -44.5532 684.016 -82.2762C658.471 -55.7479 632.926 -29.1917 607.381 -2.66335Z" fill="#4C4977" fill-opacity="0.1"/>
<path fill-rule="evenodd" clip-rule="evenodd" d="M796.953 71.3938C798.232 23.0038 804.458 -25.1639 808.016 -73.415C806.96 -76.1651 807.126 -79.3318 808.6 -81.5818C810.101 -103.999 810.962 -126.416 810.379 -148.917C791.394 -148.917 772.381 -148.917 753.396 -148.944C749.81 -148.944 747.225 -147.972 744.696 -145.333C734.383 -134.583 724.015 -123.861 713.702 -113.138C709.783 -61.9147 710.172 -10.5247 710.45 40.8376C738.33 50.7545 768.517 61.3936 796.953 71.366V71.3938Z" fill="#4C4977" fill-opacity="0.1"/>
<path fill-rule="evenodd" clip-rule="evenodd" d="M931.988 -53.609C897.715 -55.6924 863.748 -61.5536 829.669 -65.9982C827.501 -38.7476 824.638 -11.4969 822.415 15.7537C856.66 16.9481 890.182 23.8927 923.9 29.5317C926.54 3.11448 929.431 -26.3584 931.988 -53.609Z" fill="#4C4977" fill-opacity="0.1"/>
<path fill-rule="evenodd" clip-rule="evenodd" d="M922.26 45.921C888.681 40.2542 855.242 33.4485 821.164 32.3929C820.08 47.9488 819.246 63.5047 818.996 79.0884C869.78 96.8388 910.613 110.811 914.838 111.672C915.672 108.311 918.646 81.3385 922.26 45.921Z" fill="#4C4977" fill-opacity="0.1"/>
<path fill-rule="evenodd" clip-rule="evenodd" d="M1935.02 155.173C1910.9 140.118 1886.96 124.812 1862.92 109.589C1861.7 108.811 1860.36 108.172 1858.61 107.2C1850.05 127.617 1841.54 147.979 1833.01 168.34C1867.01 183.841 1904.34 189.785 1939.92 200.897C1939.92 188.702 1939.92 176.507 1939.92 164.313C1939.92 160.035 1938.72 157.479 1935.02 155.173Z" fill="#4C4977" fill-opacity="0.1"/>
<path fill-rule="evenodd" clip-rule="evenodd" d="M1792.21 265.704C1840.79 282.232 1890.52 295.149 1939.83 309.371C1939.83 279.037 1939.86 248.703 1939.89 218.369C1902.31 206.036 1862.81 199.841 1826.59 183.646C1815.14 211.008 1803.69 238.37 1792.21 265.704Z" fill="#4C4977" fill-opacity="0.1"/>
<path fill-rule="evenodd" clip-rule="evenodd" d="M1873.57 387.29C1833.98 375.762 1792.04 372.901 1754.29 356.261C1747.82 371.762 1741.34 387.206 1734.83 402.707C1778.2 418.402 1821.34 433.735 1864.59 448.847C1866.51 428.207 1870.12 407.735 1873.57 387.262V387.29Z" fill="#4C4977" fill-opacity="0.1"/>
<path fill-rule="evenodd" clip-rule="evenodd" d="M1783.62 286.232C1776 304.427 1768.36 322.677 1760.71 340.872C1797.1 357.206 1837.93 359.845 1876.23 370.678C1879.04 352.567 1881.32 334.4 1881.71 316.038C1848.8 306.788 1815.94 297.343 1783.62 286.232Z" fill="#4C4977" fill-opacity="0.1"/>
<path fill-rule="evenodd" clip-rule="evenodd" d="M1880.77 454.513C1900.25 461.291 1919.79 468.042 1939.39 474.736C1939.56 472.014 1939.78 470.097 1939.81 468.18C1939.81 422.957 1939.81 377.734 1939.81 332.511C1925.96 328.483 1912.09 324.566 1898.19 320.677C1896.47 365.734 1884.21 409.651 1880.77 454.513Z" fill="#4C4977" fill-opacity="0.1"/>
<path fill-rule="evenodd" clip-rule="evenodd" d="M1572.17 620.628C1552.85 615.545 1533.53 610.489 1514.21 605.461C1513.38 608.072 1511.24 654.768 1509.35 703.297C1529.31 705.825 1549.29 708.075 1569.36 709.686C1571.03 680.018 1571.92 650.296 1572.2 620.6L1572.17 620.628Z" fill="#4C4977" fill-opacity="0.1"/>
<path fill-rule="evenodd" clip-rule="evenodd" d="M1557.35 832.994C1562.44 797.605 1566 761.993 1568.36 726.297C1548.43 724.686 1528.56 722.436 1508.71 719.908C1506.99 766.187 1505.71 809.799 1506.24 813.883C1523.25 820.244 1540.31 826.605 1557.35 832.994Z" fill="#4C4977" fill-opacity="0.1"/>
<path fill-rule="evenodd" clip-rule="evenodd" d="M1764.02 672.379C1709.18 657.185 1654.53 642.434 1599.88 627.962C1599.66 646.462 1599.16 664.963 1598.38 683.463C1598.38 683.463 1694.39 709.075 1742.12 721.936C1749.4 705.464 1756.68 688.935 1763.99 672.407L1764.02 672.379Z" fill="#4C4977" fill-opacity="0.1"/>
<path fill-rule="evenodd" clip-rule="evenodd" d="M1690.72 838.244C1656.48 827.161 1623.09 813.633 1589.24 801.355C1587.62 815.216 1585.85 829.05 1583.79 842.883C1613.7 854.05 1643.69 865.273 1673.79 876.523C1679.44 863.745 1685.05 851.022 1690.69 838.272L1690.72 838.244Z" fill="#4C4977" fill-opacity="0.1"/>
<path fill-rule="evenodd" clip-rule="evenodd" d="M1591.13 784.354C1626.62 797.16 1661.56 811.41 1697.5 822.911C1710.12 794.382 1722.72 765.882 1735.31 737.353C1689.5 725.27 1597.52 701.63 1597.52 701.63C1596.1 729.27 1593.99 756.854 1591.13 784.354Z" fill="#4C4977" fill-opacity="0.1"/>
<path fill-rule="evenodd" clip-rule="evenodd" d="M1104.3 372.901C1130.65 372.678 1156.92 372.401 1183.07 375.984C1183.44 346.9 1183.8 317.788 1183.96 288.676C1157.95 279.482 1131.87 270.287 1105.72 261.065C1105.47 298.677 1104.83 335.816 1104.33 372.901H1104.3Z" fill="#4C4977" fill-opacity="0.1"/>
<path fill-rule="evenodd" clip-rule="evenodd" d="M1104.08 389.54C1103.77 413.901 1103.58 438.235 1103.63 462.653C1129.87 461.041 1156.08 459.43 1182.27 457.791C1182.38 436.069 1182.63 414.374 1182.88 392.651C1156.81 388.706 1130.4 389.206 1104.08 389.512V389.54Z" fill="#4C4977" fill-opacity="0.1"/>
<path fill-rule="evenodd" clip-rule="evenodd" d="M1320.08 336.705C1282.14 323.316 1244.2 309.927 1206.14 296.51C1205.78 349.817 1204.78 403.123 1204.5 456.43C1241.92 454.125 1279.31 451.819 1316.69 449.513C1317.3 411.901 1319.55 374.317 1320.08 336.705Z" fill="#4C4977" fill-opacity="0.1"/>
<path fill-rule="evenodd" clip-rule="evenodd" d="M1333.37 448.486C1345.04 447.763 1356.72 447.041 1368.39 446.319V353.761C1357.83 350.039 1347.24 346.289 1336.68 342.567C1336.01 377.873 1333.98 413.179 1333.37 448.486Z" fill="#4C4977" fill-opacity="0.1"/>
<path fill-rule="evenodd" clip-rule="evenodd" d="M1396.22 444.624C1411.89 443.652 1427.54 442.708 1443.22 441.735C1443.97 421.096 1444.67 401.207 1445.39 380.929C1428.99 375.151 1412.59 369.345 1396.22 363.567V444.624Z" fill="#4C4977" fill-opacity="0.1"/>
<path fill-rule="evenodd" clip-rule="evenodd" d="M1039.53 606.878C1002.81 594.794 966.651 582.877 930.543 570.988C929.82 572.544 925.734 586.739 919.647 608.6C919.647 608.6 998.922 625.573 1039.14 630.684C1039.28 622.823 1039.42 614.934 1039.53 606.878Z" fill="#4C4977" fill-opacity="0.1"/>
<path fill-rule="evenodd" clip-rule="evenodd" d="M1038.5 669.685C1038.59 662.24 1038.7 654.796 1038.84 647.323C997.199 641.962 915.06 624.99 915.06 624.99C908.167 649.851 899.578 681.102 890.627 713.964C939.466 719.519 988.943 715.186 1038 718.742C1038.17 702.38 1038.31 686.019 1038.53 669.657L1038.5 669.685Z" fill="#4C4977" fill-opacity="0.1"/>
<path fill-rule="evenodd" clip-rule="evenodd" d="M966.623 739.02C939.299 738.881 911.975 738.603 884.79 735.436C860.107 826.216 834.701 921.246 834.756 924.024C836.869 923.079 838.898 922.246 840.844 921.302C859.023 912.468 877.174 903.607 895.325 894.773C917.089 884.162 938.854 873.551 960.646 862.939C970.125 822.883 968.402 779.937 966.623 739.02Z" fill="#4C4977" fill-opacity="0.1"/>
<path fill-rule="evenodd" clip-rule="evenodd" d="M1031.22 828.661C1035.14 826.772 1036.75 824.744 1036.78 820.216C1036.89 793.799 1037.42 767.382 1037.75 740.937C1019.63 739.575 1001.48 739.242 983.301 739.103C984.913 776.854 986.358 816.244 979.632 853.689C996.838 845.328 1014.04 836.966 1031.25 828.633L1031.22 828.661Z" fill="#4C4977" fill-opacity="0.1"/>
<path fill-rule="evenodd" clip-rule="evenodd" d="M643.405 909.551C629.118 868.189 614.83 826.827 600.487 785.271C578.973 808.049 557.653 830.633 536.361 853.161C548.313 881.856 559.237 910.968 570.245 940.052C594.678 929.969 619.278 920.302 643.405 909.551Z" fill="#4C4977" fill-opacity="0.1"/>
<path fill-rule="evenodd" clip-rule="evenodd" d="M523.936 866.356C503.7 887.801 483.492 909.19 463.229 930.635C464.869 933.496 466.064 935.635 467.287 937.719C475.403 951.608 483.52 965.497 491.664 979.386C513.095 969.303 533.47 956.608 554.985 946.608C544.811 919.774 534.832 892.884 523.936 866.356Z" fill="#4C4977" fill-opacity="0.1"/>
<path fill-rule="evenodd" clip-rule="evenodd" d="M650.66 930.496C625.588 941.524 600.043 951.497 574.72 962.053C549.926 972.386 526.966 986.775 502.811 998.442C520.434 1028.61 538.056 1058.78 555.568 1089C558.153 1093.47 560.905 1095.03 565.992 1095C586.395 1094.92 606.797 1094.89 627.2 1094.89C642.21 1065.55 660.611 1038.11 678.123 1010.14C668.95 983.581 659.777 957.052 650.604 930.496H650.66Z" fill="#4C4977" fill-opacity="0.1"/>
<path fill-rule="evenodd" clip-rule="evenodd" d="M646.046 1094.86C664.03 1094.86 682.015 1094.86 699.999 1094.86H707.421C699.971 1073.31 692.549 1051.8 685.128 1030.3C671.646 1051.55 657.971 1072.72 646.046 1094.86Z" fill="#4C4977" fill-opacity="0.1"/>
<path fill-rule="evenodd" clip-rule="evenodd" d="M526.882 572.211C511.983 529.071 497.029 485.82 481.963 442.235C455.334 485.986 428.955 529.376 402.632 572.627C444.049 571.738 485.549 569.822 526.882 572.211Z" fill="#4C4977" fill-opacity="0.1"/>
<path fill-rule="evenodd" clip-rule="evenodd" d="M460.476 587.905C437.767 588.294 415.057 589.1 392.375 589.461C371.472 623.851 350.569 658.185 329.611 692.63C371.027 711.575 412.166 730.381 453.472 749.27C459.114 695.686 461.755 641.795 460.476 587.905Z" fill="#4C4977" fill-opacity="0.1"/>
<path fill-rule="evenodd" clip-rule="evenodd" d="M506.925 773.715C528.995 750.326 550.76 727.27 572.496 704.241C559.238 665.852 546.006 627.573 532.748 589.211C514.235 587.961 495.695 587.628 477.127 587.711C478.461 644.101 475.487 700.463 469.316 756.492C481.824 762.215 494.361 767.937 506.925 773.687V773.715Z" fill="#4C4977" fill-opacity="0.1"/>
<path fill-rule="evenodd" clip-rule="evenodd" d="M1831.98 518.598C1831.07 517.904 1830.62 517.32 1830.01 517.126C1789.48 502.765 1748.93 488.431 1708.37 474.07C1707.04 490.375 1703.87 506.487 1700.01 522.515C1738.34 534.071 1776.89 544.904 1815.28 556.349C1820.84 543.738 1826.4 531.154 1831.96 518.598H1831.98Z" fill="#4C4977" fill-opacity="0.1"/>
<path fill-rule="evenodd" clip-rule="evenodd" d="M1808.49 571.711C1771.03 560.571 1733.39 549.988 1695.95 538.682C1691.19 556.849 1686.08 574.933 1682.19 593.183C1716.96 602.545 1751.73 611.934 1786.56 621.295C1793.93 604.656 1801.21 588.155 1808.47 571.711H1808.49Z" fill="#4C4977" fill-opacity="0.1"/>
<path fill-rule="evenodd" clip-rule="evenodd" d="M1686.58 466.347C1655.95 455.514 1625.32 444.68 1594.71 433.846C1589.93 477.403 1577.09 519.515 1565.91 561.849C1597.55 570.377 1629.15 578.877 1660.76 587.405C1669.46 547.127 1684.47 507.404 1686.58 466.347Z" fill="#4C4977" fill-opacity="0.1"/>
<path fill-rule="evenodd" clip-rule="evenodd" d="M1521.75 408.485C1521.55 408.485 1521.33 408.624 1521.13 408.735C1520.97 408.846 1520.8 408.985 1520.25 409.457C1518.55 455.208 1516.85 501.32 1515.13 548.154C1526.69 551.266 1538.23 554.377 1549.79 557.488C1561.11 514.737 1574.31 472.181 1578.53 428.096C1560.47 421.707 1542.4 415.318 1524.33 408.901C1523.53 408.624 1522.61 408.568 1521.72 408.457L1521.75 408.485Z" fill="#4C4977" fill-opacity="0.1"/>
<path fill-rule="evenodd" clip-rule="evenodd" d="M129.893 205.702C144.569 151.423 173.783 101.2 182.539 45.421C156.633 37.782 130.671 30.1429 104.626 22.4761C89.2821 69.5049 74.2442 115.673 59.0396 162.285C82.6944 176.785 106.294 191.23 129.893 205.702Z" fill="#4C4977" fill-opacity="0.1"/>
<path fill-rule="evenodd" clip-rule="evenodd" d="M174.923 128.034C211.198 132.923 247.139 139.395 282.69 148.034C282.663 128.395 282.607 108.756 282.551 89.0886C282.551 84.4496 282.134 79.8384 281.912 74.6716C254.06 66.477 226.263 58.2824 198.439 50.0878C193.769 76.9495 184.68 102.561 174.923 128.006V128.034Z" fill="#4C4977" fill-opacity="0.1"/>
<path fill-rule="evenodd" clip-rule="evenodd" d="M144.681 214.786C175.535 233.703 206.417 252.592 237.354 271.565C238.688 270.454 239.411 269.926 240.023 269.315C253.309 255.592 266.568 241.786 279.911 228.119C282.106 225.869 282.857 223.508 282.829 220.425C282.774 202.036 282.718 183.618 282.69 165.201C245.137 155.868 207.139 148.895 168.752 143.895C159.691 167.229 150.685 190.563 144.653 214.786H144.681Z" fill="#4C4977" fill-opacity="0.1"/>
<path fill-rule="evenodd" clip-rule="evenodd" d="M1361.92 873.967C1323.84 869.884 1285.84 864.634 1247.78 860.3C1242.56 875.078 1237.33 889.94 1231.97 905.135C1273.97 925.885 1315.77 946.552 1357.77 967.303C1359.39 936.163 1363.75 905.107 1361.92 873.939V873.967Z" fill="#4C4977" fill-opacity="0.1"/>
<path fill-rule="evenodd" clip-rule="evenodd" d="M1374.09 975.386C1390.27 983.386 1406.47 991.387 1422.79 999.442C1424.6 958.886 1425.88 919.107 1427.43 879.467C1411.14 878.578 1394.91 877.245 1378.68 875.662C1380.4 908.94 1375.23 942.108 1374.09 975.386Z" fill="#4C4977" fill-opacity="0.1"/>
<path fill-rule="evenodd" clip-rule="evenodd" d="M1428.43 717.769C1377.01 743.075 1325.61 768.409 1274.19 793.66C1271.3 795.077 1269.94 797.132 1268.94 800.049C1265.38 810.577 1261.63 821.022 1257.93 831.466C1257.68 832.161 1257.43 832.883 1257.18 833.605C1314.25 840.328 1371.17 848.689 1428.54 851.745C1430.52 803.716 1432.88 720.519 1431.46 716.547C1430.43 716.936 1429.41 717.269 1428.43 717.769Z" fill="#4C4977" fill-opacity="0.1"/>
<path fill-rule="evenodd" clip-rule="evenodd" d="M1420.71 126.756C1396.25 93.1443 1376.15 56.5324 1352.52 22.365C1331.12 55.1435 1309.77 87.8665 1288.4 120.617C1306.77 139.701 1325.75 158.729 1341.38 180.091C1367.81 162.285 1394.24 144.534 1420.71 126.756Z" fill="#4C4977" fill-opacity="0.1"/>
<path fill-rule="evenodd" clip-rule="evenodd" d="M1279.06 134.895C1260.18 163.84 1241.28 192.785 1222.38 221.758C1232.19 225.231 1241.2 227.814 1249.62 231.647C1256.71 234.87 1261.77 233.814 1268.21 229.453C1287.98 216.064 1307.77 202.73 1327.56 189.396C1313.24 169.84 1295.96 152.368 1279.06 134.895Z" fill="#4C4977" fill-opacity="0.1"/>
<path fill-rule="evenodd" clip-rule="evenodd" d="M1439.08 114.395C1459.9 100.422 1480.72 86.422 1501.54 72.4494C1504.1 70.7272 1506.6 68.9771 1509.52 66.9215C1481.3 15.1704 1453.28 -36.2197 1424.79 -88.4708C1404.97 -58.109 1385.24 -27.8584 1365.5 2.39232C1391.66 38.6431 1412.87 78.1996 1439.05 114.395H1439.08Z" fill="#4C4977" fill-opacity="0.1"/>
<path fill-rule="evenodd" clip-rule="evenodd" d="M551.288 64.5881C546.423 62.8381 543.449 63.4492 539.808 67.3104C515.041 93.3943 489.969 119.2 464.98 145.118C463.618 146.534 462.422 148.09 461.116 149.618C467.454 167.868 473.68 185.813 479.851 203.591H577.139C582.309 161.424 586.339 119.089 585.199 76.6439C573.886 72.6161 562.573 68.616 551.26 64.5881H551.288Z" fill="#4C4977" fill-opacity="0.1"/>
<path fill-rule="evenodd" clip-rule="evenodd" d="M607.631 84.6163C608.104 124.395 604.268 164.063 599.403 203.591H720.596C733.66 182.257 746.614 161.09 760.15 139.006C757.287 137.868 755.314 137.006 753.257 136.284C704.696 119.062 656.164 101.867 607.631 84.6163Z" fill="#4C4977" fill-opacity="0.1"/>
<path fill-rule="evenodd" clip-rule="evenodd" d="M1938.61 779.465C1937.47 779.521 1936.78 779.465 1936.16 779.576C1916.1 783.965 1896.03 788.354 1875.96 792.743C1876.85 810.549 1877.4 828.411 1877.54 846.245C1897.81 848.3 1918.29 849.522 1938.61 848.217V779.438V779.465Z" fill="#4C4977" fill-opacity="0.1"/>
<path fill-rule="evenodd" clip-rule="evenodd" d="M1872.79 950.997C1907.7 963.692 1936 973.608 1938.61 973.803V864.773C1918.29 865.995 1897.89 864.967 1877.54 862.939C1877.35 892.357 1875.93 921.774 1872.79 951.025V950.997Z" fill="#4C4977" fill-opacity="0.1"/>
<path fill-rule="evenodd" clip-rule="evenodd" d="M1853.97 797.577C1826.95 803.494 1799.96 809.438 1772.94 815.327C1769.08 816.16 1767.05 818.216 1765.49 821.827C1755.9 844.05 1746.06 866.162 1736.31 888.301C1734.97 891.329 1733.69 894.357 1732.25 897.746C1742.98 902.829 1800.04 924.385 1851.5 943.247C1856.39 894.968 1856.3 846.05 1853.97 797.605V797.577Z" fill="#4C4977" fill-opacity="0.1"/>
<path fill-rule="evenodd" clip-rule="evenodd" d="M489.163 10.7535C527.299 -29.1918 558.265 -61.9703 559.071 -63.6648C487.328 -67.8871 415.724 -71.4705 343.37 -74.415C343.342 -55.6924 343.37 -37.0531 343.426 -18.4138C392.514 -11.4414 440.658 0.614418 489.163 10.7258V10.7535Z" fill="#4C4977" fill-opacity="0.1"/>
<path fill-rule="evenodd" clip-rule="evenodd" d="M399.519 104.061C380.895 97.8388 362.355 91.4498 344.065 84.3385C344.26 109.45 344.454 134.59 344.649 159.785C347.845 157.173 370.277 134.256 399.491 104.033L399.519 104.061Z" fill="#4C4977" fill-opacity="0.1"/>
<path fill-rule="evenodd" clip-rule="evenodd" d="M466.758 34.1985C425.814 25.2261 385.009 15.4481 343.564 9.448C343.676 28.4762 343.815 47.5044 343.954 66.5326C366.413 75.505 389.345 83.1997 412.333 90.8109C429.622 72.8939 448.496 53.2823 466.758 34.1985Z" fill="#4C4977" fill-opacity="0.1"/>
<path fill-rule="evenodd" clip-rule="evenodd" d="M906.443 973.775C910.029 1014 908.889 1054.3 907.861 1094.61H1025.88C1002.56 1046.08 979.548 998.192 956.255 949.719C939.577 957.775 922.982 965.775 906.416 973.775H906.443Z" fill="#4C4977" fill-opacity="0.1"/>
<path fill-rule="evenodd" clip-rule="evenodd" d="M768.795 1040.22C775.244 1058.86 781.443 1076.78 787.641 1094.64H880.064C880.982 1058.64 881.955 1022.64 879.62 986.748C842.623 1004.61 805.764 1022.42 768.795 1040.25V1040.22Z" fill="#4C4977" fill-opacity="0.1"/>
<path fill-rule="evenodd" clip-rule="evenodd" d="M1099.13 879.801C1114.64 907.468 1128.37 936.524 1146.22 962.719C1168.18 900.023 1189.41 838.189 1189.47 835.522C1159.34 850.3 1129.26 865.05 1099.16 879.801H1099.13Z" fill="#4C4977" fill-opacity="0.1"/>
<path fill-rule="evenodd" clip-rule="evenodd" d="M996.532 930.107C997.727 932.746 998.589 934.774 999.534 936.746C1010.99 960.58 1022.44 984.386 1033.89 1008.19H1130.21C1133.23 999.637 1136.35 990.803 1139.49 981.886C1117.81 952.525 1102.16 918.996 1084.15 887.162C1054.96 901.468 1025.8 915.774 996.532 930.107Z" fill="#4C4977" fill-opacity="0.1"/>
<path fill-rule="evenodd" clip-rule="evenodd" d="M1062.13 1066.97C1065.97 1074.97 1069.8 1083 1073.64 1091C1074.61 1093.03 1075.5 1094.94 1078.36 1094.89C1085.23 1094.75 1092.1 1094.83 1098.71 1094.83C1100.99 1089.83 1111.36 1061.28 1124.31 1024.83H1041.9C1048.65 1038.86 1055.4 1052.92 1062.13 1066.94V1066.97Z" fill="#4C4977" fill-opacity="0.1"/>
<path fill-rule="evenodd" clip-rule="evenodd" d="M203.609 5.08682C229.516 12.7259 255.339 20.3372 281.189 27.9484C281.968 20.8372 282.023 -27.1083 281.662 -71.2482L213.644 -74.7483C212.504 -47.9144 208.251 -21.386 203.609 5.08682Z" fill="#4C4977" fill-opacity="0.1"/>
<path fill-rule="evenodd" clip-rule="evenodd" d="M196.994 -76.4428C177.731 -78.5818 158.496 -81.1929 139.344 -84.1375C132.423 -62.887 125.446 -41.5254 118.441 -19.9971C141.595 -13.1636 164.611 -6.38571 187.543 0.364441C191.99 -25.1084 195.993 -50.6089 196.966 -76.4428H196.994Z" fill="#4C4977" fill-opacity="0.1"/>
<path fill-rule="evenodd" clip-rule="evenodd" d="M66.7116 784.243C77.2464 741.214 87.8091 698.213 98.344 655.157C95.8423 653.935 93.8687 652.962 91.8952 652.046C73.5217 643.629 55.1482 635.24 36.7747 626.823C29.909 623.684 23.0711 620.462 16.1498 617.489C14.6765 616.85 12.0081 616.239 11.3132 616.962C6.11523 622.351 0 626.378 0 635.879C0.138982 685.269 0.194575 734.686 0.222372 784.076C22.3762 784.715 44.53 784.437 66.7116 784.243Z" fill="#4C4977" fill-opacity="0.1"/>
<path fill-rule="evenodd" clip-rule="evenodd" d="M0.25 811.855C0.25 836.828 0.25 861.8 0.25 886.745C13.8703 887.273 27.4628 887.995 41.0552 888.857C47.3372 863.245 53.5915 837.689 59.8735 812.077C39.999 812.272 20.0967 812.438 0.25 811.855Z" fill="#4C4977" fill-opacity="0.1"/>
<path fill-rule="evenodd" clip-rule="evenodd" d="M0.25 1043.86V1050.5C0.611354 1050.64 0.972709 1050.78 1.33406 1050.92C13.231 1002.39 25.1278 953.83 37.0247 905.301C24.7665 904.551 12.5082 903.912 0.25 903.44C0.25 950.247 0.25 997.053 0.25 1043.86Z" fill="#4C4977" fill-opacity="0.1"/>
<path fill-rule="evenodd" clip-rule="evenodd" d="M1553.32 -11.2191C1559.66 -0.274399 1565.55 10.9481 1571.67 22.0317C1572.06 22.7261 1572.67 23.2817 1573.14 23.8373C1579.79 20.0316 1602.24 5.30907 1631.24 -14.0247C1613.28 -32.8585 1596.02 -52.3867 1577.28 -70.4426C1569.5 -53.8034 1561.72 -37.1641 1553.93 -20.5248C1552.52 -17.497 1551.24 -14.8025 1553.32 -11.2191Z" fill="#4C4977" fill-opacity="0.1"/>
<path fill-rule="evenodd" clip-rule="evenodd" d="M1213.43 957.414C1197.11 1003.58 1181.13 1048.86 1165.01 1094.44H1289.48C1296.62 1064.28 1301.63 1033.67 1305.68 1002.91C1289.12 994.72 1272.58 986.525 1256.01 978.359C1242.11 971.497 1228.16 964.664 1213.43 957.414Z" fill="#4C4977" fill-opacity="0.1"/>
<path fill-rule="evenodd" clip-rule="evenodd" d="M1414.15 1056.55C1384.96 1042.11 1355.75 1027.69 1326.56 1013.25C1322.86 1040.5 1318.42 1067.64 1312.33 1094.44H1419.23C1419.4 1091.89 1419.62 1089.72 1419.71 1087.56C1419.98 1080.89 1420.09 1074.25 1420.46 1067.58C1420.87 1059.89 1420.96 1059.89 1414.17 1056.53L1414.15 1056.55Z" fill="#4C4977" fill-opacity="0.1"/>
<path fill-rule="evenodd" clip-rule="evenodd" d="M182.678 327.261C180.844 326.066 179.009 324.844 177.119 323.705C163.888 315.538 150.546 307.538 137.426 299.177C133.368 296.593 129.587 296.038 124.917 297.066C108.239 300.732 91.5338 304.26 74.8281 307.788C79.7203 349.622 80.7488 391.651 82.1386 433.707C129.921 383.929 181.4 329.733 182.678 327.233V327.261Z" fill="#4C4977" fill-opacity="0.1"/>
<path fill-rule="evenodd" clip-rule="evenodd" d="M63.8764 384.123C62.9035 359.761 61.4303 335.427 58.5951 311.205C56.5937 311.621 54.5924 312.038 52.591 312.483C35.4684 316.122 18.3458 319.816 0.444824 323.622V399.179C21.3478 395.123 42.1395 390.651 62.5144 384.401C62.9869 384.262 63.4039 384.206 63.8486 384.123H63.8764Z" fill="#4C4977" fill-opacity="0.1"/>
<path fill-rule="evenodd" clip-rule="evenodd" d="M0.667232 515.543C0.667232 515.709 0.889604 515.904 1.02859 515.987C1.19536 516.098 1.41774 516.126 1.64011 516.209C5.28145 513.209 33.1891 484.542 66.0724 450.43C65.4886 434.013 65.0439 417.596 64.5158 401.179C43.4738 407.485 22.0149 412.013 0.472656 416.124C0.472656 448.013 0.472656 479.792 0.472656 511.57C0.472656 512.904 0.583842 514.237 0.667232 515.543Z" fill="#4C4977" fill-opacity="0.1"/>
<path fill-rule="evenodd" clip-rule="evenodd" d="M522.713 327.205C537.167 369.206 551.788 411.179 566.687 453.541C568.077 451.791 568.827 451.013 569.383 450.124C593.399 410.763 617.415 371.373 641.432 331.983C601.822 331.094 562.295 328.316 522.713 327.205Z" fill="#4C4977" fill-opacity="0.1"/>
<path fill-rule="evenodd" clip-rule="evenodd" d="M516.931 310.344C561.823 311.427 606.631 314.844 651.522 315.455C664.836 293.593 678.179 271.759 691.493 249.926C691.577 249.787 691.493 249.509 691.382 249.314C691.299 249.12 691.16 248.953 691.076 248.842H496.056C502.95 269.426 509.927 289.926 516.931 310.399V310.344Z" fill="#4C4977" fill-opacity="0.1"/>
<path fill-rule="evenodd" clip-rule="evenodd" d="M1938.75 555.46C1922.88 549.849 1907.26 544.349 1891.77 538.877C1889.02 542.988 1870.29 584.433 1849.83 630.795C1879.4 633.934 1909.06 636.684 1938.75 638.24V555.432V555.46Z" fill="#4C4977" fill-opacity="0.1"/>
<path fill-rule="evenodd" clip-rule="evenodd" d="M1938.75 654.935C1906.7 653.24 1874.71 650.185 1842.8 646.712C1817.92 703.297 1792.87 761.687 1792.37 765.548C1841.24 754.77 1889.91 744.076 1938.75 733.298V654.907V654.935Z" fill="#4C4977" fill-opacity="0.1"/>
<path fill-rule="evenodd" clip-rule="evenodd" d="M1776.61 -19.7472C1776.61 -19.5527 1776.64 -19.3305 1776.72 -18.7193C1806.19 0.0032959 1835.71 18.8093 1865.48 37.7264C1866.37 -2.02453 1868.26 -41.7754 1866.98 -81.4985C1836.93 -61.1092 1806.85 -40.7476 1776.78 -20.3305C1776.64 -20.2472 1776.64 -19.9416 1776.61 -19.7194V-19.7472Z" fill="#4C4977" fill-opacity="0.1"/>
<path fill-rule="evenodd" clip-rule="evenodd" d="M1940 -10.2468C1924.85 -10.4968 1909.7 -11.108 1894.61 -12.5247C1894.05 10.0592 1893.25 32.6152 1892.97 55.1991C1908.51 65.0604 1924.1 74.9773 1939.83 84.922C1939.92 52.9768 1940 21.365 1940 -10.2468Z" fill="#4C4977" fill-opacity="0.1"/>
<path fill-rule="evenodd" clip-rule="evenodd" d="M1765.27 991.387C1728.41 977.664 1691.92 964.053 1654.5 950.136C1648.8 970.997 1643.16 991.637 1637.55 1012.16C1681.33 1013.33 1724.99 1017.83 1768.83 1017.66C1767.63 1008.91 1766.47 1000.16 1765.27 991.414V991.387Z" fill="#4C4977" fill-opacity="0.1"/>
<path fill-rule="evenodd" clip-rule="evenodd" d="M1633.02 1028.72C1627.04 1050.55 1621.09 1072.31 1615.11 1094.17H1696.61C1696.86 1073.31 1696.98 1052.44 1695.25 1031.64C1674.52 1030.42 1653.78 1029.17 1633.02 1028.75V1028.72Z" fill="#4C4977" fill-opacity="0.1"/>
<path fill-rule="evenodd" clip-rule="evenodd" d="M1712.01 1032.55C1713.68 1053.05 1713.54 1073.58 1713.29 1094.14H1779.17C1776.45 1074.06 1773.75 1054.17 1771.08 1034.3C1751.37 1034.47 1731.69 1033.61 1712.01 1032.55Z" fill="#4C4977" fill-opacity="0.1"/>
<path fill-rule="evenodd" clip-rule="evenodd" d="M1500.2 958.441C1533.5 965.275 1565.83 976.47 1599.08 983.636C1603.44 967.192 1607.75 950.719 1611.97 934.191C1575.34 920.524 1539.42 907.107 1502.68 893.384C1501.84 915.163 1501.01 936.83 1500.2 958.441Z" fill="#4C4977" fill-opacity="0.1"/>
<path fill-rule="evenodd" clip-rule="evenodd" d="M1495.42 1094.31H1568.72C1577.67 1062.83 1586.35 1031.33 1594.8 999.748C1562.75 992.887 1531.61 982.22 1499.59 975.331C1498.12 1015.05 1496.73 1054.67 1495.42 1094.33V1094.31Z" fill="#4C4977" fill-opacity="0.1"/>
<path fill-rule="evenodd" clip-rule="evenodd" d="M11.5357 130.228C21.4034 99.9777 31.2712 69.6993 41.1389 39.4486C27.5186 38.6708 13.9817 36.7263 0.472656 34.6429V126.423C3.66925 128.339 6.86585 130.256 10.0624 132.173C10.7574 131.256 11.3411 130.784 11.5357 130.201V130.228Z" fill="#4C4977" fill-opacity="0.1"/>
<path fill-rule="evenodd" clip-rule="evenodd" d="M77.7191 -72.6927C51.9517 -73.2483 26.2122 -74.4428 0.472656 -75.2761V17.976C15.7607 20.3371 31.0488 22.5316 46.5036 23.0316C56.8995 -8.88575 67.3232 -40.7754 77.7191 -72.6927Z" fill="#4C4977" fill-opacity="0.1"/>
<path fill-rule="evenodd" clip-rule="evenodd" d="M1518.41 217.508C1514.88 198.508 1511.96 179.396 1507.68 159.674C1479.61 178.535 1451.81 197.202 1424.01 215.897C1426.79 242.148 1428.32 268.482 1429.04 294.843C1465.65 307.788 1502.23 320.733 1539.29 333.844C1535.67 313.427 1532.28 294.26 1528.86 275.093C1525.42 255.898 1522 236.675 1518.41 217.48V217.508Z" fill="#4C4977" fill-opacity="0.1"/>
<path fill-rule="evenodd" clip-rule="evenodd" d="M1408.36 226.425C1388.57 239.731 1368.75 253.037 1348.8 266.482C1370.03 273.982 1391.13 281.454 1412.2 288.899C1411.53 268.037 1410.34 247.203 1408.36 226.425Z" fill="#4C4977" fill-opacity="0.1"/>
<path fill-rule="evenodd" clip-rule="evenodd" d="M67.3509 1012.8C60.6797 1040.03 54.0642 1067.05 47.3374 1094.5C49.8113 1094.67 51.5625 1094.89 53.3136 1094.89C82.361 1094.89 111.408 1094.89 140.456 1094.89C139.511 1068.36 136.898 1041.72 135.73 1015.36C112.993 1014.5 90.2274 1013.66 67.3509 1012.8Z" fill="#4C4977" fill-opacity="0.1"/>
<path fill-rule="evenodd" clip-rule="evenodd" d="M157.967 1016.19C159.051 1042.36 161.442 1068.67 162.359 1094.92C174.451 1094.92 186.514 1094.92 198.606 1094.94C202.553 1094.94 205.11 1093.53 207.723 1090.72C224.818 1072.36 242.107 1054.14 259.313 1035.89C263.705 1031.22 268.125 1026.55 272.517 1021.89C272.378 1021.42 272.266 1020.94 272.127 1020.47C234.102 1019.05 196.076 1017.61 157.939 1016.19H157.967Z" fill="#4C4977" fill-opacity="0.1"/>
<path fill-rule="evenodd" clip-rule="evenodd" d="M308.652 1094.33H401.409C390.513 1073.14 379.645 1051.89 368.721 1030.72C348.79 1051.83 328.833 1072.97 308.68 1094.33H308.652Z" fill="#4C4977" fill-opacity="0.1"/>
<path fill-rule="evenodd" clip-rule="evenodd" d="M380.812 1017.91C393.987 1043.36 406.996 1068.89 420.144 1094.36H487.078C464.118 1055.11 441.63 1016.72 418.782 977.72C406.079 991.164 393.459 1004.55 380.84 1017.91H380.812Z" fill="#4C4977" fill-opacity="0.1"/>
<path fill-rule="evenodd" clip-rule="evenodd" d="M1933.52 1054.3C1901.11 1042.17 1868.67 1030.05 1836.24 1017.97C1834.73 1017.42 1833.09 1017.17 1830.79 1016.58C1834.4 1043.03 1837.93 1068.67 1841.46 1094.47H1938.83C1939.03 1092.17 1939.31 1090.22 1939.33 1088.28C1939.39 1079.61 1939.39 1070.94 1939.33 1062.3C1939.31 1056.53 1939.25 1056.47 1933.52 1054.33V1054.3Z" fill="#4C4977" fill-opacity="0.1"/>
<path fill-rule="evenodd" clip-rule="evenodd" d="M2.0012 216.841C2.0012 216.841 1.58425 216.925 1.41747 217.008C1.2229 217.091 1.05612 217.23 1.02832 217.286V277.954C25.8228 272.704 50.0335 267.593 75.7731 262.148C73.2992 260.37 72.1317 259.398 70.8531 258.62C47.921 244.675 24.9611 230.758 2.02899 216.869L2.0012 216.841Z" fill="#4C4977" fill-opacity="0.1"/>
</g>
<defs>
<clipPath id="clip0_4630_10914">
<rect width="1940" height="1244" fill="white" transform="translate(0 -149)"/>
</clipPath>
</defs>
</svg>
